# xmcd
#
# Track frame offsets: 
#        150
#        19581
#        32939
#        52855
#        69243
#        87004
#        104758
#        123306
#        134723
#        152122
#        172132
#
# Disc length: 2554 seconds
#
# Revision: 0
# Processed by: cddbd v1.5.2PL0 Copyright (c) Steve Scherf et al.
# Submitted via: ExactAudioCopy v0.99pb4
#
DISCID=9309f80b
DTITLE=Martin Lee Cropper - Eleven
DYEAR=1900
DGENRE=Blues
TTITLE0=Don't You Get Me
TTITLE1=A Little Good Lovin'
TTITLE2=The 58 Club
TTITLE3=Gleebeam
TTITLE4=Size 11 Sneakers
TTITLE5=I Am What I Am
TTITLE6=The Apple Never Forgets
TTITLE7=Ringing The Bell
TTITLE8=For The Money
TTITLE9=Last Day Of The year
TTITLE10=Ain't No Rock and Roll
EXTD=
EXTT0=
EXTT1=
EXTT2=
EXTT3=
EXTT4=
EXTT5=
EXTT6=
EXTT7=
EXTT8=
EXTT9=
EXTT10=
PLAYORDER=
